<mxfile host="app.diagrams.net" modified="2021-02-28T15:36:38.057Z" agent="5.0 (Windows NT 10.0; WOW64) AppleWebKit/537.36 (KHTML, like Gecko) Chrome/83.0.4103.116 Safari/537.36" etag="vUefWHjwJFLEFcWMtP_S" version="14.4.3" type="github">
  <diagram name="Page-1" id="55a83fd1-7818-8e21-69c5-c3457e3827bb">
    <mxGraphModel dx="868" dy="450" grid="1" gridSize="10" guides="1" tooltips="1" connect="1" arrows="1" fold="1" page="1" pageScale="1" pageWidth="1100" pageHeight="850" background="#ffffff" math="0" shadow="0">
      <root>
        <mxCell id="0" />
        <mxCell id="1" parent="0" />
        <mxCell id="-kVvr9wK46IA4hzqKJNI-12" style="edgeStyle=orthogonalEdgeStyle;rounded=0;orthogonalLoop=1;jettySize=auto;html=1;exitX=0.25;exitY=0;exitDx=0;exitDy=0;entryX=0.278;entryY=1;entryDx=0;entryDy=0;entryPerimeter=0;" edge="1" parent="1" source="-kVvr9wK46IA4hzqKJNI-3" target="-kVvr9wK46IA4hzqKJNI-10">
          <mxGeometry relative="1" as="geometry" />
        </mxCell>
        <mxCell id="-kVvr9wK46IA4hzqKJNI-17" style="edgeStyle=orthogonalEdgeStyle;rounded=0;orthogonalLoop=1;jettySize=auto;html=1;exitX=1;exitY=0.5;exitDx=0;exitDy=0;" edge="1" parent="1" source="-kVvr9wK46IA4hzqKJNI-3">
          <mxGeometry relative="1" as="geometry">
            <mxPoint x="330" y="340" as="targetPoint" />
          </mxGeometry>
        </mxCell>
        <mxCell id="-kVvr9wK46IA4hzqKJNI-3" value="" style="image;html=1;image=img/lib/clip_art/computers/Laptop_128x128.png" vertex="1" parent="1">
          <mxGeometry x="170" y="300" width="80" height="80" as="geometry" />
        </mxCell>
        <mxCell id="-kVvr9wK46IA4hzqKJNI-13" style="edgeStyle=orthogonalEdgeStyle;rounded=0;orthogonalLoop=1;jettySize=auto;html=1;exitX=0.5;exitY=1;exitDx=0;exitDy=0;exitPerimeter=0;" edge="1" parent="1" source="-kVvr9wK46IA4hzqKJNI-10" target="-kVvr9wK46IA4hzqKJNI-3">
          <mxGeometry relative="1" as="geometry" />
        </mxCell>
        <mxCell id="-kVvr9wK46IA4hzqKJNI-10" value="&lt;font style=&quot;font-size: 14px&quot;&gt;hosts文件&lt;/font&gt;" style="shape=cylinder3;whiteSpace=wrap;html=1;boundedLbl=1;backgroundOutline=1;size=15;" vertex="1" parent="1">
          <mxGeometry x="165" y="130" width="90" height="90" as="geometry" />
        </mxCell>
        <mxCell id="-kVvr9wK46IA4hzqKJNI-11" value="&lt;font style=&quot;font-size: 14px&quot;&gt;IP domain_name&lt;br&gt;192.168.1.101 hadoop101&lt;br&gt;52.48.13.13&amp;nbsp; github.com&lt;/font&gt;" style="text;html=1;align=center;verticalAlign=middle;resizable=0;points=[];autosize=1;" vertex="1" parent="1">
          <mxGeometry x="280" y="130" width="180" height="50" as="geometry" />
        </mxCell>
        <mxCell id="-kVvr9wK46IA4hzqKJNI-14" value="&lt;font style=&quot;font-size: 14px&quot;&gt;domain&lt;/font&gt;" style="text;html=1;align=center;verticalAlign=middle;resizable=0;points=[];autosize=1;" vertex="1" parent="1">
          <mxGeometry x="120" y="250" width="60" height="20" as="geometry" />
        </mxCell>
        <mxCell id="-kVvr9wK46IA4hzqKJNI-15" value="&lt;font style=&quot;font-size: 14px&quot;&gt;IP&lt;/font&gt;" style="text;html=1;align=center;verticalAlign=middle;resizable=0;points=[];autosize=1;" vertex="1" parent="1">
          <mxGeometry x="235" y="250" width="30" height="20" as="geometry" />
        </mxCell>
        <mxCell id="-kVvr9wK46IA4hzqKJNI-23" style="edgeStyle=orthogonalEdgeStyle;rounded=0;orthogonalLoop=1;jettySize=auto;html=1;exitX=0;exitY=0.75;exitDx=0;exitDy=0;entryX=1;entryY=0.75;entryDx=0;entryDy=0;" edge="1" parent="1" source="-kVvr9wK46IA4hzqKJNI-18" target="-kVvr9wK46IA4hzqKJNI-3">
          <mxGeometry relative="1" as="geometry" />
        </mxCell>
        <mxCell id="-kVvr9wK46IA4hzqKJNI-18" value="" style="image;html=1;image=img/lib/clip_art/computers/Mainframe_128x128.png" vertex="1" parent="1">
          <mxGeometry x="310" y="300" width="80" height="80" as="geometry" />
        </mxCell>
        <mxCell id="-kVvr9wK46IA4hzqKJNI-20" value="&lt;font style=&quot;font-size: 14px&quot;&gt;IP&lt;/font&gt;" style="text;html=1;align=center;verticalAlign=middle;resizable=0;points=[];autosize=1;" vertex="1" parent="1">
          <mxGeometry x="265" y="370" width="30" height="20" as="geometry" />
        </mxCell>
        <mxCell id="-kVvr9wK46IA4hzqKJNI-21" value="&lt;font style=&quot;font-size: 14px&quot;&gt;domain&lt;/font&gt;" style="text;html=1;align=center;verticalAlign=middle;resizable=0;points=[];autosize=1;" vertex="1" parent="1">
          <mxGeometry x="255" y="310" width="60" height="20" as="geometry" />
        </mxCell>
        <mxCell id="-kVvr9wK46IA4hzqKJNI-24" value="DNS" style="text;html=1;align=center;verticalAlign=middle;resizable=0;points=[];autosize=1;" vertex="1" parent="1">
          <mxGeometry x="330" y="400" width="40" height="20" as="geometry" />
        </mxCell>
        <mxCell id="-kVvr9wK46IA4hzqKJNI-25" value="&lt;font style=&quot;font-size: 14px&quot;&gt;C:\WINDOWS\system32\drivers\etc\HOSRS&lt;/font&gt;" style="text;html=1;align=center;verticalAlign=middle;resizable=0;points=[];autosize=1;" vertex="1" parent="1">
          <mxGeometry x="160" y="90" width="290" height="20" as="geometry" />
        </mxCell>
      </root>
    </mxGraphModel>
  </diagram>
</mxfile>
